<?xml version="1.0" encoding="utf-8"?>
<!-- Generator: Adobe Illustrator 26.2.1, SVG Export Plug-In . SVG Version: 6.00 Build 0)  -->
<svg version="1.1" id="Component_11_1" xmlns="http://www.w3.org/2000/svg" xmlns:xlink="http://www.w3.org/1999/xlink" x="0px"
	 y="0px" viewBox="0 0 84 108" style="enable-background:new 0 0 84 108;" xml:space="preserve">
<style type="text/css">
	.st0{enable-background:new    ;}
	.st1{fill:#161B33;}
	.st2{fill:none;}
	.st3{fill:none;stroke:#161B33;stroke-width:4;}
</style>
<g class="st0">
	<path class="st1" d="M16.13,7.49l12.55,33.7l12.77-33.7h5.44V47h-4.19V14.6L30.83,47H27L14.88,14.6V47h-4.19V7.49H16.13z"/>
</g>
<g class="st0">
	<path class="st1" d="M46.88,46.49v20.22l20.14-20.22h5.52l-15.6,15.55L73.5,86h-5.32L54.02,65.04l-7.14,7.02V86h-4.19V46.49H46.88z
		"/>
</g>
<g id="Rectangle_78" transform="translate(0 4)">
	<path class="st2" d="M42,0L42,0c23.2,0,42,18.8,42,42l0,0c0,23.2-18.8,42-42,42l0,0C18.8,84,0,65.2,0,42l0,0C0,18.8,18.8,0,42,0z"
		/>
	<path class="st3" d="M42,2L42,2c22.09,0,40,17.91,40,40l0,0c0,22.09-17.91,40-40,40l0,0C19.91,82,2,64.09,2,42l0,0
		C2,19.91,19.91,2,42,2z"/>
</g>
</svg>
